<svg width="195" height="75" viewBox="0 0 195 75" fill="none" xmlns="http://www.w3.org/2000/svg">
<path fill-rule="evenodd" clip-rule="evenodd" d="M7.77057 55.1411C7.25098 55.6322 6.43167 55.6091 5.94058 55.0895L0.450401 49.2807C-0.0406895 48.7611 -0.0175858 47.9418 0.502003 47.4507L7.9821 40.3809V30.4208C7.9821 29.7058 8.56167 29.1262 9.27661 29.1262H13.8074C14.5224 29.1262 15.1019 29.7058 15.1019 30.4208V33.6516L23.9566 25.2826C26.0802 23.2755 29.4289 23.3699 31.436 25.4935L33.5697 27.7511L42.2485 36.7962L34.613 44.1224L27.3917 36.5962L7.77057 55.1411Z" fill="#010F23"/>
<path d="M26.5748 45.0168C25.9739 48.3325 25.6247 53.7339 29.4642 57.5449C31.5991 59.664 34.1466 62.1927 34.1466 62.1927C34.3395 62.3841 34.6516 62.3829 34.8422 62.1909L35.0061 62.0258C35.1967 61.8338 35.508 61.8318 35.7008 62.0232L36.8092 63.1233C37.002 63.3147 37.0024 63.626 36.8117 63.8181L36.6479 63.9832C36.4573 64.1752 36.4584 64.4873 36.6513 64.6787L39.3622 67.3695C39.747 67.7516 40.3713 67.7492 40.7541 67.3635L44.1965 63.8954C44.5802 63.5089 44.577 62.8854 44.1922 62.5034L41.4812 59.8126C41.2884 59.6212 40.9763 59.6223 40.7857 59.8144L40.6226 59.9786C40.4312 60.1715 40.1199 60.1734 39.9271 59.982L38.8188 58.8819C38.6259 58.6905 38.6256 58.3792 38.817 58.1863L39.3261 57.6734L42.139 54.8395L37.2106 49.9477L35.7845 51.3844C35.0188 52.1559 33.772 52.1605 33.0014 51.3956C33.0014 51.3956 32.6435 51.0403 32.6115 51.0086C30.0244 48.4406 29.2185 46.5407 28.475 44.7025C28.0024 43.5314 26.6309 43.6045 26.5748 45.0168Z" fill="#00B286"/>
<path d="M57.6111 30.6985C57.329 30.4184 56.9466 30.2646 56.5489 30.2695C56.1512 30.276 55.7734 30.4427 55.5001 30.7298L38.6776 48.4697L43.606 53.3616L61.2193 36.4066C61.5053 36.132 61.6683 35.7522 61.6719 35.3545C61.6746 34.9576 61.5171 34.5756 61.2358 34.2963L57.6111 30.6985Z" fill="#00B286"/>
<path d="M73.8431 55V34.9505H77.6127L79.4354 36.9803C80.2639 36.428 81.2443 35.9447 82.3765 35.5305C83.5088 35.1162 84.6411 34.9091 85.7733 34.9091L87.3061 40.9571C86.3119 40.9571 85.2901 41.0952 84.2406 41.3713C83.1912 41.6475 82.2385 42.117 81.3823 42.7798V55H73.8431ZM92.6718 44.9753C92.6718 41.6061 93.7074 38.9687 95.7787 37.0632C97.8775 35.1576 100.446 34.2049 103.484 34.2049C106.687 34.2049 109.09 35.2405 110.692 37.3117C112.293 39.3829 113.094 41.827 113.094 44.6439V47.2536H100.874C101.205 48.0269 101.702 48.5792 102.365 48.9106C103.056 49.242 103.87 49.4077 104.809 49.4077C105.693 49.4077 106.59 49.3248 107.502 49.1591C108.441 48.9934 109.297 48.7173 110.07 48.3306L112.183 53.4259C111.023 54.282 109.587 54.8343 107.875 55.0828C106.162 55.3314 104.892 55.4557 104.064 55.4557C100.805 55.4557 98.0846 54.6272 95.9029 52.9702C93.7489 51.2856 92.6718 48.6206 92.6718 44.9753ZM105.886 42.6969C105.859 42.255 105.652 41.7441 105.265 41.1642C104.878 40.5566 104.215 40.2529 103.277 40.2529C102.586 40.2529 102.02 40.4738 101.578 40.9157C101.164 41.3299 100.86 41.9236 100.667 42.6969H105.886ZM127.747 41.0399C127.747 41.2332 127.844 41.3989 128.037 41.537C128.258 41.6475 128.728 41.827 129.446 42.0755C131.103 42.6555 132.691 43.4564 134.21 44.4782C135.729 45.4724 136.488 46.8946 136.488 48.7449C136.488 50.8437 135.784 52.4869 134.375 53.6744C132.995 54.8619 130.909 55.4557 128.12 55.4557C127.292 55.4557 125.939 55.2209 124.061 54.7515C122.21 54.282 120.705 53.5916 119.545 52.6802L121.658 47.5022C122.459 47.9164 123.425 48.3306 124.558 48.7449C125.718 49.1315 126.657 49.3248 127.375 49.3248C127.816 49.3248 128.148 49.242 128.369 49.0763C128.59 48.9106 128.7 48.7587 128.7 48.6206C128.7 48.4273 128.59 48.2616 128.369 48.1235C128.148 47.9578 127.734 47.7783 127.126 47.585C125.469 47.0051 123.854 46.218 122.279 45.2238C120.733 44.202 119.96 42.7659 119.96 40.9157C119.96 38.8168 120.747 37.1736 122.321 35.9861C123.895 34.7986 126.077 34.2049 128.866 34.2049C129.694 34.2049 130.868 34.412 132.387 34.8262C133.933 35.2129 135.287 35.8619 136.447 36.7732L134.334 41.9513C133.533 41.537 132.691 41.1642 131.807 40.8328C130.923 40.5014 130.122 40.3357 129.404 40.3357C128.797 40.3357 128.369 40.4186 128.12 40.5843C127.872 40.75 127.747 40.9018 127.747 41.0399ZM147.576 32.1751C146.471 32.1751 145.518 31.7746 144.717 30.9738C143.916 30.1729 143.516 29.2201 143.516 28.1155C143.516 26.9832 143.916 26.0166 144.717 25.2157C145.518 24.3873 146.471 23.973 147.576 23.973C148.708 23.973 149.674 24.3873 150.475 25.2157C151.304 26.0166 151.718 26.9832 151.718 28.1155C151.718 29.2201 151.304 30.1729 150.475 30.9738C149.674 31.7746 148.708 32.1751 147.576 32.1751ZM143.847 55V34.9091H151.387V55H143.847ZM173.456 55L169.935 50.6918L166.497 55H158.005L165.378 45.0167L158.005 35.8619L165.792 34.8262L169.686 39.7558L173.58 34.9091H181.906L174.243 45.4309L181.906 55H173.456Z" fill="#061126"/>
<path d="M190.261 47.4193C191.31 47.4193 192.194 47.7921 192.912 48.5378C193.658 49.2558 194.031 50.1533 194.031 51.2304C194.031 52.3074 193.658 53.2049 192.912 53.923C192.194 54.641 191.31 55 190.261 55C189.184 55 188.273 54.641 187.527 53.923C186.809 53.2049 186.45 52.3074 186.45 51.2304C186.45 50.1533 186.809 49.2558 187.527 48.5378C188.273 47.7921 189.184 47.4193 190.261 47.4193Z" fill="#00B286"/>
</svg>
